<svg id="Layer_1" data-name="Layer 1" xmlns="http://www.w3.org/2000/svg" viewBox="0 0 500.65 129.51"><defs><style>.cls-1,.cls-3{fill:#2e95c9;}.cls-1,.cls-2{fill-rule:evenodd;}.cls-2,.cls-4{fill:#0b314f;}</style></defs><title>logo-bd</title><path class="cls-1" d="M425.3,23.91c-11.16-4.72-27.75-13.35-33.82-16.55h-11V99.83a29.73,29.73,0,0,0,7.73-5.67c11.5-13.35,24.4-25.34,35.95-28.14,2.83-1.86,4.43,1.82,4.43,1.82A54.13,54.13,0,0,0,432.48,55c1.17-6.58,1.55-14.21,2.16-20.11C435.16,29.82,436,26,436,26S432,26.75,425.3,23.91ZM481.08,7.36c-1.67,4.39-5.42,13.81-6.9,13.91-.92.07-4.52-1.85-7.61-5.62a53.55,53.55,0,0,1-5.33-8.29H421.44C425.78,8.59,433,9.18,441.8,14c10.66,5.79,21.83,16.09,28.75,19.66a18.9,18.9,0,0,0,6.52,2.12s2.07-3.86,3.45-4.68c1.13-.68,12.2,3.56,16.13,5.1V7.36Z"/><path class="cls-2" d="M449.93,97a90.15,90.15,0,0,1-20-4.1,31.73,31.73,0,0,0,3.21-3.52,12.93,12.93,0,0,0,1.47-2.68l-.69-.69a223.67,223.67,0,0,1-23.59,17.28,225.18,225.18,0,0,1-29.89,15.11v4.26h89c1.17-3.94,4.67-15.36,7.68-21.31,1.26-2.5,4.87-2.94,4.87-2.94l-.14-1.1A277.17,277.17,0,0,1,449.93,97Zm36.8-50.69c-6-.75-12.82-2-12.82-2S468.64,51,463,57.58c-6.5,7.59-13.49,15.21-13.49,15.21l47.14,13.48V47A97.5,97.5,0,0,1,486.73,46.32Zm9.92,76.35v-21.6l-13.08,21.6Z"/><path class="cls-3" d="M4.56,47.1h8.5c6.52,0,11,2.11,11,7.92,0,4.32-2.52,6.48-6.48,7.47v.09c4.27.36,7.29,3.15,7.29,7.56,0,6.75-5.58,8.37-12,8.37H4.56Zm4.5,13.41h2.47c4.36,0,8.05-.4,8.05-5,0-3.73-3.19-4.68-5.8-4.68H9.06Zm0,14.31h3.37c4,0,7.69-.85,7.69-5.08,0-4.86-4.27-5.54-8.14-5.54H9.06Z"/><path class="cls-3" d="M40.34,55c7,0,11.65,5,11.65,12,0,6.57-4.77,12-11.65,12s-11.7-5.44-11.7-12C28.64,60.06,33.32,55,40.34,55Zm0,20.61c4.95,0,7.15-4.5,7.15-8.59,0-4.36-2.66-8.59-7.15-8.59s-7.2,4.23-7.2,8.59C33.14,71.13,35.34,75.63,40.34,75.63Z"/><path class="cls-3" d="M56.7,74A11.29,11.29,0,0,0,62,75.63c1.94,0,4.32-.81,4.32-3.28,0-4.19-9.94-3.83-9.94-10.26,0-4.77,3.56-7.06,8.1-7.06a17.66,17.66,0,0,1,5.27.9l-.36,3.69a12.36,12.36,0,0,0-4.45-1.17c-2.16,0-4,.9-4,2.79,0,4.68,9.94,3.33,9.94,10.66,0,4.9-3.91,7.15-8,7.15a13.19,13.19,0,0,1-6.3-1.26Z"/><path class="cls-3" d="M89.86,59H83.79V71.54c0,2.65,1.62,4.09,3.55,4.09a5.22,5.22,0,0,0,2.88-.81v3.6a13.25,13.25,0,0,1-3.6.63c-4.37,0-7.06-2.07-7.06-6.66V59H74.38V55.56h5.17V50.25l4.23-1.35v6.66h6.07Z"/><path class="cls-3" d="M105.84,55c7,0,11.65,5,11.65,12,0,6.57-4.77,12-11.65,12s-11.7-5.44-11.7-12C94.14,60.06,98.82,55,105.84,55Zm0,20.61c4.95,0,7.15-4.5,7.15-8.59,0-4.36-2.66-8.59-7.15-8.59s-7.2,4.23-7.2,8.59C98.64,71.13,100.85,75.63,105.84,75.63Z"/><path class="cls-3" d="M122.92,55.56H127v3.65h.09c1.26-2.61,4.32-4.19,7.51-4.19,5.94,0,8.59,3.69,8.59,9.85V78.51H139V66.63c0-5.35-1.17-8-4.86-8.19-4.82,0-7,3.87-7,9.45V78.51h-4.23Z"/><path class="cls-4" d="M153.33,47.1h9.27c9.31,0,16.74,5.76,16.74,15.43,0,10.53-6.39,16-16.74,16h-9.27Zm4.5,27.45h4.72c7.74,0,12-3.73,12-11.83,0-7.33-5-11.65-11.47-11.65h-5.26Z"/><path class="cls-4" d="M184.22,84.72a6.48,6.48,0,0,0,2,.36c3.78,0,5-5.22,5-5.67a12.66,12.66,0,0,0-.81-2.43l-7.78-21.42h4.63l6.16,19h.09l6.3-19h4.28L195.65,79c-1.58,4.41-3.24,9.49-8.82,9.49a13.89,13.89,0,0,1-2.88-.31Z"/><path class="cls-4" d="M208.93,55.56H213v3.65h.09c1.26-2.61,4.32-4.19,7.51-4.19,5.94,0,8.59,3.69,8.59,9.85V78.51H225V66.63c0-5.35-1.17-8-4.86-8.19-4.82,0-7,3.87-7,9.45V78.51h-4.23Z"/><path class="cls-4" d="M237.26,57.18A14.62,14.62,0,0,1,244.82,55c6.57,0,9.22,3.24,9.22,9.49V74a36,36,0,0,0,.18,4.5h-4v-3h-.09a8.52,8.52,0,0,1-7.11,3.51c-4.95,0-8.41-2.16-8.41-7.15,0-5.76,6.3-7.56,10.66-7.56,1.67,0,2.83,0,4.5.09,0-4-1.44-6-5.67-6a10.79,10.79,0,0,0-6.66,2.34Zm12.55,10.39c-.9,0-1.8-.09-2.7-.09-2.29,0-8,.36-8,4.41,0,2.43,2.34,3.73,4.28,3.73,4.18,0,6.39-2.61,6.39-6Z"/><path class="cls-4" d="M260.65,55.56h4v3.33h.09C266.32,56.24,268.61,55,272,55a6.78,6.78,0,0,1,6.52,4.46A8.18,8.18,0,0,1,285.62,55c5.85,0,8,3.78,8,8.77V78.51h-4.23V64.83c0-2.83-.67-6.39-4.09-6.39-4.32,0-6,4.23-6,8.5V78.51H275V64.83c0-2.83-.67-6.39-4.09-6.39-4.32,0-6,4.23-6,8.5V78.51h-4.23Z"/><path class="cls-4" d="M305.49,50.43h-4.77V45.66h4.77ZM301,55.56h4.23V78.51H301Z"/><path class="cls-4" d="M327.29,59.43a12.25,12.25,0,0,0-4.59-1c-4.73,0-7.38,4.23-7.38,8.59,0,4.09,2.21,8.59,7.65,8.59a8.83,8.83,0,0,0,4.54-1.31l.32,3.78a12.91,12.91,0,0,1-5.31.94c-6.93,0-11.7-5.44-11.7-12,0-7,4.68-12,11.7-12a15.83,15.83,0,0,1,5.13.9Z"/><path class="cls-4" d="M333,74a11.29,11.29,0,0,0,5.26,1.62c1.94,0,4.32-.81,4.32-3.28,0-4.19-9.94-3.83-9.94-10.26,0-4.77,3.55-7.06,8.1-7.06a17.66,17.66,0,0,1,5.26.9l-.36,3.69a12.35,12.35,0,0,0-4.45-1.17c-2.16,0-4.05.9-4.05,2.79,0,4.68,9.95,3.33,9.95,10.66,0,4.9-3.92,7.15-8,7.15a13.19,13.19,0,0,1-6.3-1.26Z"/></svg>